<?xml version="1.0" standalone="no"?><!DOCTYPE svg PUBLIC "-//W3C//DTD SVG 1.1//EN" "http://www.w3.org/Graphics/SVG/1.1/DTD/svg11.dtd"><svg t="1576044364423" class="icon" viewBox="0 0 1024 1024" version="1.1" xmlns="http://www.w3.org/2000/svg" p-id="4582" width="240" height="240" xmlns:xlink="http://www.w3.org/1999/xlink"><defs><style type="text/css"></style></defs><path d="M803.2 755.2c-134.4-48-176-89.6-176-179.2 0-54.4 41.6-35.2 57.6-134.4 6.4-41.6 44.8 0 51.2-92.8 0-35.2-19.2-44.8-19.2-44.8s9.6-54.4 12.8-96C736 156.8 700.8 22.4 512 22.4c-185.6 0-220.8 134.4-217.6 185.6 3.2 41.6 12.8 96 12.8 96s-16 9.6-16 48c6.4 92.8 41.6 51.2 51.2 92.8 19.2 96 57.6 80 57.6 134.4 0 89.6-41.6 131.2-176 179.2-137.6 48-224 96-224 131.2v115.2h1024v-115.2c0-35.2-86.4-83.2-220.8-134.4z" fill="#d0d0d0" p-id="4583"></path></svg>