<?xml version="1.0" standalone="no"?><!DOCTYPE svg PUBLIC "-//W3C//DTD SVG 1.1//EN" "http://www.w3.org/Graphics/SVG/1.1/DTD/svg11.dtd"><svg t="1576050136967" class="icon" viewBox="0 0 1448 1024" version="1.1" xmlns="http://www.w3.org/2000/svg" p-id="6116" width="339.375" height="240" xmlns:xlink="http://www.w3.org/1999/xlink"><defs><style type="text/css"></style></defs><path d="M724.411767 1024A773.049462 773.049462 0 0 1 6.442079 529.248344L0 512.176835l6.442079-17.071509a767.895799 767.895799 0 0 1 1435.617272 0l6.442079 17.071509-6.442079 17.071509a773.049462 773.049462 0 0 1-717.647584 494.751656zM103.71747 512.176835a671.264617 671.264617 0 0 0 1241.388595 0 671.264617 671.264617 0 0 0-1241.388595 0z" p-id="6117" fill="#ffffff"></path><path d="M724.411767 781.777835a269.601 269.601 0 1 1 269.923104-269.923104 269.923104 269.923104 0 0 1-269.923104 269.923104z m0-442.892921a173.291921 173.291921 0 1 0 173.291921 173.291921 173.291921 173.291921 0 0 0-173.291921-173.291921z" p-id="6118" fill="#ffffff"></path></svg>